<?xml version="1.0" encoding="UTF-8"?>
<svg xmlns="http://www.w3.org/2000/svg" version="1.1" viewBox="0 0 144 144">
  <defs>
    <style>
      .cls-1 {
        fill: #121213;
      }

      .cls-2 {
        fill: #b7e2e9;
      }

      .cls-3 {
        fill: #77cddc;
      }

      .cls-4 {
        fill: #efcca7;
      }

      .cls-5 {
        fill: #84c452;
      }
    </style>
  </defs>
  <!-- Generator: Adobe Illustrator 28.7.1, SVG Export Plug-In . SVG Version: 1.2.0 Build 142)  -->
  <g>
    <g id="Layer_1">
      <path class="cls-1" d="M72.41,32.76c1.94,4.53,4.33,8.69,6.7,12.86,3.93,6.94,7.98,13.83,11.29,21.1,1.98,4.36,3.71,8.81,4.73,13.5.7,3.18,1.08,6.38.75,9.64-.49,4.87-2.5,8.97-6.14,12.3-1.58,1.44-3.12,2.93-4.94,4.07-4.51,2.85-9.44,4.09-14.74,3.63-5.73-.5-10.63-2.88-14.76-6.87-2.08-2.01-3.98-4.13-5.18-6.8-1.53-3.38-2-6.93-1.74-10.59.48-6.87,2.92-13.16,5.79-19.31,2.81-6.03,6.17-11.76,9.52-17.5,2.75-4.73,5.61-9.4,7.97-14.35.25-.52.47-1.04.76-1.67ZM81.94,105.34c-1.33,1.15-2.77,2.14-4.34,2.94-.1.05-.25.07-.23.27.17-.03.32-.04.46-.08,2.54-.69,4.91-1.76,7.1-3.22,1.73-1.15,3.19-2.61,4.68-4.03,1.65-1.57,2.99-3.37,3.94-5.44,1.71-3.75,1.93-7.69,1.47-11.71-.37-3.3-1.23-6.49-2.32-9.61-2.35-6.75-5.61-13.08-9.08-19.3-2.83-5.08-5.71-10.13-8.55-15.21-.95-1.7-1.81-3.45-2.63-5.2-.15.01-.15.1-.19.16-1.72,3.61-3.73,7.06-5.74,10.51-3.26,5.61-6.62,11.17-9.59,16.95-2.81,5.47-5.34,11.05-6.82,17.05-.56,2.25-.95,4.52-1.01,6.84,0,.25-.03.46.26.63,1.72.94,3.4,1.93,5.23,2.65,1.83.71,3.68,1.03,5.64.56,4.14-1,7.97-.27,11.43,2.25.08.06.14.2.3.1-.22-1.73-.66-3.42-1.26-5.06-.13-.36-.34-.63-.66-.85-.74-.5-1.55-.86-2.38-1.16-4.12-1.47-6.61-5.73-6.27-10.16.08-1.12.37-2.2,1-3.23.98,1.87,2.44,3.06,4.33,3.86,1.94.81,3.44,2.19,4.11,4.28.51,1.59.58,3.25.64,4.91.02.55-.06,1.15.12,1.65.44,1.26.85,2.54,1.15,3.91.61-1.56,1.2-3.06,1.78-4.55.04-.1.03-.23.03-.34,0-.83-.02-1.66.01-2.48.13-2.87,1.3-5.11,3.98-6.4,1.35-.65,2.67-1.34,4.02-1.98,1.06-.5,1.97-1.23,2.96-1.95.2,2.38-.12,4.6-1.07,6.71-1.7,3.75-4.64,5.99-8.6,6.96-.22.05-.48.03-.58.36-.5,1.65-1.25,3.21-1.72,4.87,0,.02.02.04.04.05.06.04.05.03.06.02.29-.25.58-.5.86-.76,1.36-1.26,2.75-2.47,4.27-3.54,1.23-.86,2.39-.55,3.01.79.72-.49,1.35-1.09,2.12-1.5,1.67-.87,3.31-.04,3.54,1.82,1.14-.77,2.33-1.14,3.5-.16.86.73.85,1.7.4,2.71.25.01.46.01.66.03,1.19.13,1.94,1.17,1.7,2.34-.12.6-.39,1.12-.74,1.61-.49.7-1.14,1.25-1.79,1.79-1.82,1.52-3.65,3.02-5.47,4.54-.17.14-.39.25-.43.51-.27,1.49-1.27,2.21-2.66,2.52M81.27,104.71c-.78-.12-1.46-.18-2.13-.33-3.5-.74-6.72-2.21-9.85-3.89-.27-.14-.48-.26-.23-.64.21-.32.33-.39.69-.19,2.7,1.51,5.52,2.76,8.52,3.57,1.37.37,2.77.65,4.21.41,1.65-.28,2.39-1.71,1.56-3.12-.36-.63-.98-.99-1.64-1.23-1.44-.51-2.91-.94-4.36-1.43-2.08-.71-4.03-1.63-5.48-3.37-.31-.37-.64-.73-1.01-1.03-3.28-2.64-6.98-3.43-11.06-2.46-1.36.32-2.7.35-4.06.07-2.19-.46-4.14-1.49-6.08-2.56-.41-.22-.79-.5-1.24-.63,0,.47-.01.89,0,1.31.01.29.07.57.1.86.45,4.25,2.17,7.9,5.15,10.96.34.35.72.63,1.16.84,1.24.6,2.46,1.23,3.69,1.84,3.42,1.7,6.83,3.39,10.54,4.39,1.21.32,2.46.78,3.68.59,2.99-.45,5.43-2.07,7.82-3.97ZM75.9,85.57c5.21-1.09,9.76-6.96,8.91-11.44-1.99,1.25-4.12,2.21-6.17,3.31-2.57,1.39-3.48,3.77-3.17,6.87,1.09-1.63,2.35-3.02,4.08-3.92-1.38,1.59-2.69,3.22-3.65,5.18ZM62.55,73.3c-.77,2.66-.41,5.06.86,7.38,1.38,2.52,3.74,3.65,6.35,4.52-.52-1.04-1.08-1.98-1.69-2.88-.62-.91-1.27-1.79-1.96-2.65,1.92,1.21,3.3,2.94,4.53,4.98-.04-.79-.05-1.41-.1-2.02-.18-2.08-.75-3.97-2.54-5.27-.77-.56-1.58-1.03-2.45-1.4-.95-.4-1.71-1.03-2.34-1.83-.19-.24-.38-.48-.66-.82ZM86.52,88.57c.04-.3-.11-.63-.42-.82-.34-.2-.72-.39-1.15-.29-.38.09-.71.27-1.03.49-3.05,2.18-5.76,4.75-8.47,7.32-.22.21-.21.31.05.45.74.41,1.51.74,2.29,1.06.26.11.44.07.65-.14.72-.72,1.46-1.43,2.2-2.13,1.65-1.57,3.33-3.1,5.09-4.53.43-.35.77-.75.78-1.43ZM82.6,98.33c1.17.53,2.18,1.15,2.59,2.44.5-.41.94-.78,1.38-1.15,1.54-1.28,3.1-2.55,4.63-3.84.73-.61,1.37-1.31,1.61-2.27.2-.76-.19-1.29-.97-1.35-.75-.05-1.45.13-2.05.58-1.38,1.02-2.76,2.03-4.12,3.07-1.03.79-2.07,1.58-3.07,2.52ZM79.14,97.24c.74.23,1.41.4,2.05.64.29.11.46.03.66-.15,2.47-2.14,5.08-4.11,7.75-5.99.41-.29.78-.64.99-1.1.38-.82.02-1.55-.87-1.75-.6-.13-1.09.12-1.55.45-1.7,1.23-3.33,2.55-4.87,3.97-1.38,1.28-2.74,2.58-4.17,3.93ZM80.86,88.63c-.02-.43-.31-.59-.69-.62-.35-.03-.62.15-.89.35-1.88,1.33-3.55,2.89-5.22,4.46-1.08,1.02-1.07,1.03.1,1.97.22.18.34.14.52-.04,1.88-1.85,3.85-3.61,5.81-5.37.22-.2.39-.43.38-.75ZM57.53,103.86c3.41,2.84,9.16,5.31,11.7,5.05-4.19-1.24-7.93-3.19-11.7-5.05Z"/>
      <path class="cls-3" d="M82.66,104.56c1.39-.31,2.39-1.03,2.66-2.52.05-.26.26-.37.43-.51,1.82-1.51,3.65-3.02,5.47-4.54.65-.54,1.29-1.09,1.79-1.79.35-.49.61-1.01.74-1.61.23-1.17-.51-2.21-1.7-2.34-.21-.02-.42-.02-.66-.03.46-1,.47-1.98-.4-2.71-1.16-.98-2.36-.62-3.5.16-.23-1.86-1.87-2.69-3.54-1.82-.77.4-1.4,1.01-2.12,1.5-.62-1.35-1.78-1.66-3.01-.79-1.52,1.07-2.91,2.28-4.27,3.54-.28.27-.58.51-.88.77l-.1-.06c.47-1.67,1.22-3.23,1.73-4.89.1-.33.36-.31.58-.36,3.96-.97,6.9-3.2,8.6-6.96.95-2.11,1.27-4.33,1.07-6.71-.99.72-1.9,1.45-2.96,1.95-1.35.64-2.68,1.33-4.02,1.98-2.68,1.3-3.85,3.53-3.98,6.4-.04.83,0,1.65-.01,2.48,0,.11.01.24-.03.34-.58,1.5-1.17,2.99-1.78,4.55-.3-1.37-.71-2.64-1.15-3.91-.18-.5-.1-1.1-.12-1.65-.06-1.66-.13-3.31-.64-4.91-.67-2.09-2.17-3.47-4.11-4.28-1.9-.79-3.35-1.99-4.33-3.86-.64,1.03-.92,2.11-1,3.23-.33,4.43,2.16,8.68,6.27,10.16.83.3,1.64.66,2.38,1.16.31.21.53.48.66.85.6,1.65,1.04,3.33,1.26,5.06-.16.1-.23-.04-.3-.1-3.46-2.52-7.29-3.25-11.43-2.25-1.96.47-3.81.16-5.64-.56-1.83-.71-3.52-1.71-5.23-2.65-.29-.16-.27-.37-.26-.63.06-2.32.46-4.59,1.01-6.84,1.48-6,4.01-11.59,6.82-17.05,2.97-5.78,6.33-11.34,9.59-16.95,2.01-3.45,4.02-6.9,5.74-10.51.03-.07.04-.15.19-.16.82,1.75,1.68,3.5,2.63,5.2,2.84,5.08,5.72,10.13,8.55,15.21,3.47,6.23,6.73,12.55,9.08,19.3,1.09,3.13,1.95,6.32,2.32,9.61.45,4.02.24,7.96-1.47,11.71-.95,2.08-2.28,3.87-3.94,5.44-1.49,1.42-2.95,2.88-4.68,4.03-2.2,1.46-4.56,2.53-7.1,3.22-.14.04-.3.05-.46.08-.02-.21.13-.22.23-.27,1.57-.8,3.01-1.79,4.34-2.94M62.13,62.77c.2-.04.22-.27.3-.42,2.48-4.99,4.95-9.99,7.43-14.99.12-.24.25-.41-.11-.6-.38-.2-.46.01-.58.27-2.49,5.04-4.99,10.07-7.48,15.1-.16.32.06.66.44.64Z"/>
      <path class="cls-4" d="M81.27,104.71c-2.39,1.9-4.83,3.52-7.82,3.97-1.22.18-2.47-.27-3.68-.59-3.71-1-7.13-2.69-10.54-4.39-1.23-.61-2.46-1.24-3.69-1.84-.44-.21-.82-.49-1.16-.84-2.98-3.06-4.7-6.71-5.15-10.96-.03-.29-.08-.57-.1-.86-.02-.42,0-.85,0-1.31.45.13.83.41,1.24.63,1.94,1.06,3.89,2.1,6.08,2.56,1.36.28,2.7.25,4.06-.07,4.08-.97,7.78-.17,11.06,2.46.38.3.7.66,1.01,1.03,1.45,1.74,3.4,2.66,5.48,3.37,1.45.49,2.92.92,4.36,1.43.65.23,1.27.6,1.64,1.23.82,1.42.09,2.84-1.56,3.12-1.45.25-2.84-.04-4.21-.41-3-.81-5.82-2.06-8.52-3.57-.36-.2-.48-.13-.69.19-.25.38-.04.5.23.64,3.13,1.68,6.35,3.15,9.85,3.89.67.14,1.35.21,2.13.33Z"/>
      <path class="cls-5" d="M75.9,85.57c.96-1.96,2.27-3.59,3.65-5.18-1.72.91-2.99,2.29-4.08,3.92-.31-3.1.6-5.48,3.17-6.87,2.05-1.11,4.18-2.07,6.17-3.31.85,4.48-3.71,10.35-8.91,11.44Z"/>
      <path class="cls-5" d="M62.55,73.3c.28.35.47.58.66.82.63.8,1.39,1.43,2.34,1.83.87.37,1.68.84,2.45,1.4,1.79,1.31,2.36,3.2,2.54,5.27.05.61.06,1.23.1,2.02-1.23-2.04-2.61-3.77-4.53-4.98.69.86,1.34,1.74,1.96,2.65.62.91,1.18,1.85,1.69,2.88-2.61-.87-4.96-2-6.35-4.52-1.27-2.31-1.63-4.72-.86-7.38Z"/>
      <path class="cls-4" d="M86.52,88.57c0,.68-.35,1.08-.78,1.43-1.77,1.43-3.44,2.97-5.09,4.53-.74.7-1.48,1.41-2.2,2.13-.21.21-.39.24-.65.14-.78-.32-1.55-.65-2.29-1.06-.26-.14-.27-.25-.05-.45,2.7-2.58,5.42-5.15,8.47-7.32.32-.23.65-.41,1.03-.49.43-.1.81.09,1.15.29.31.18.46.51.42.82Z"/>
      <path class="cls-4" d="M82.6,98.33c1-.93,2.03-1.72,3.07-2.52,1.36-1.04,2.74-2.05,4.12-3.07.61-.45,1.3-.63,2.05-.58.78.06,1.17.59.97,1.35-.25.96-.89,1.66-1.61,2.27-1.53,1.29-3.08,2.56-4.63,3.84-.44.37-.89.74-1.38,1.15-.4-1.29-1.42-1.91-2.59-2.44Z"/>
      <path class="cls-4" d="M79.14,97.24c1.43-1.35,2.79-2.65,4.17-3.93,1.54-1.43,3.17-2.74,4.87-3.97.46-.33.95-.58,1.55-.45.88.2,1.25.92.87,1.75-.22.47-.58.81-.99,1.1-2.68,1.88-5.28,3.85-7.75,5.99-.2.18-.37.26-.66.15-.64-.24-1.31-.41-2.05-.64Z"/>
      <path class="cls-4" d="M80.86,88.63c0,.32-.16.55-.38.75-1.96,1.76-3.93,3.52-5.81,5.37-.18.18-.29.22-.52.04-1.17-.94-1.18-.96-.1-1.97,1.67-1.57,3.35-3.13,5.22-4.46.27-.19.55-.37.89-.35.38.03.67.19.69.62Z"/>
      <path class="cls-3" d="M57.53,103.86c3.77,1.86,7.52,3.81,11.7,5.05-2.55.25-8.3-2.21-11.7-5.05Z"/>
      <path class="cls-2" d="M62.13,62.77c-.39.02-.6-.32-.44-.64,2.49-5.03,4.99-10.07,7.48-15.1.13-.25.21-.47.58-.27.36.19.23.36.11.6-2.48,4.99-4.95,9.99-7.43,14.99-.08.16-.1.38-.3.42Z"/>
    </g>
  </g>
</svg>